<svg width="20" height="20" viewBox="0 0 20 20" fill="none" xmlns="http://www.w3.org/2000/svg">
<mask id="path-1-inside-1_983_21118" fill="white">
<path d="M0.0630893 1.83455L1.39695 4.16864C1.41923 4.20767 1.44917 4.24179 1.48497 4.26894C1.52078 4.2961 1.5617 4.31573 1.60529 4.32666L2.84971 4.63778L7.11776 8.90579L7.58936 8.43433L3.25449 4.09964C3.21185 4.05687 3.15836 4.02652 3.09977 4.01185L1.90409 3.71186L0.768454 1.72344L1.74207 0.749793L3.73129 1.88655L4.03142 3.08224C4.046 3.14091 4.07631 3.1945 4.11907 3.23723L8.45394 7.5721L8.92536 7.1005L4.65736 2.83246L4.34623 1.58874C4.33531 1.54509 4.31569 1.5041 4.28853 1.46823C4.26138 1.43235 4.22726 1.40233 4.18821 1.37998L1.85398 0.0462535C1.7906 0.0102221 1.71715 -0.00404357 1.64489 0.00564083C1.57263 0.0153252 1.50553 0.0484259 1.45387 0.0998749L0.120187 1.43374C0.068014 1.48503 0.0341591 1.55205 0.0238409 1.62448C0.0135227 1.69691 0.0273141 1.77073 0.0630893 1.83455ZM13.9262 6.57159L6.59046 13.9074L6.11886 13.4358L13.4547 6.10017L13.9262 6.57159ZM5.30657 14.1669C5.27694 14.1176 5.23503 14.0768 5.18493 14.0484C5.13483 14.0201 5.07825 14.0052 5.0207 14.0052H3.02006C2.96253 14.0052 2.90597 14.0201 2.85591 14.0484C2.80584 14.0768 2.76396 14.1176 2.73436 14.1669L1.73396 15.8341C1.70279 15.886 1.68633 15.9453 1.68633 16.0058C1.68633 16.0664 1.70279 16.1257 1.73396 16.1776L2.73436 17.8448C2.76399 17.8941 2.80587 17.9349 2.85593 17.9632C2.90599 17.9915 2.96253 18.0064 3.02006 18.0065H5.0207C5.07824 18.0065 5.1348 17.9916 5.18489 17.9632C5.23498 17.9349 5.27688 17.8941 5.30654 17.8448L6.3068 16.1776C6.33797 16.1257 6.35443 16.0664 6.35443 16.0058C6.35443 15.9453 6.33797 15.886 6.3068 15.8341L5.30657 14.1669ZM4.83209 17.3396H3.20881L2.40856 16.0059L3.20884 14.672H4.83209L5.63234 16.0059L4.83209 17.3396Z"/>
</mask>
<path d="M0.0630893 1.83455L1.39695 4.16864C1.41923 4.20767 1.44917 4.24179 1.48497 4.26894C1.52078 4.2961 1.5617 4.31573 1.60529 4.32666L2.84971 4.63778L7.11776 8.90579L7.58936 8.43433L3.25449 4.09964C3.21185 4.05687 3.15836 4.02652 3.09977 4.01185L1.90409 3.71186L0.768454 1.72344L1.74207 0.749793L3.73129 1.88655L4.03142 3.08224C4.046 3.14091 4.07631 3.1945 4.11907 3.23723L8.45394 7.5721L8.92536 7.1005L4.65736 2.83246L4.34623 1.58874C4.33531 1.54509 4.31569 1.5041 4.28853 1.46823C4.26138 1.43235 4.22726 1.40233 4.18821 1.37998L1.85398 0.0462535C1.7906 0.0102221 1.71715 -0.00404357 1.64489 0.00564083C1.57263 0.0153252 1.50553 0.0484259 1.45387 0.0998749L0.120187 1.43374C0.068014 1.48503 0.0341591 1.55205 0.0238409 1.62448C0.0135227 1.69691 0.0273141 1.77073 0.0630893 1.83455ZM13.9262 6.57159L6.59046 13.9074L6.11886 13.4358L13.4547 6.10017L13.9262 6.57159ZM5.30657 14.1669C5.27694 14.1176 5.23503 14.0768 5.18493 14.0484C5.13483 14.0201 5.07825 14.0052 5.0207 14.0052H3.02006C2.96253 14.0052 2.90597 14.0201 2.85591 14.0484C2.80584 14.0768 2.76396 14.1176 2.73436 14.1669L1.73396 15.8341C1.70279 15.886 1.68633 15.9453 1.68633 16.0058C1.68633 16.0664 1.70279 16.1257 1.73396 16.1776L2.73436 17.8448C2.76399 17.8941 2.80587 17.9349 2.85593 17.9632C2.90599 17.9915 2.96253 18.0064 3.02006 18.0065H5.0207C5.07824 18.0065 5.1348 17.9916 5.18489 17.9632C5.23498 17.9349 5.27688 17.8941 5.30654 17.8448L6.3068 16.1776C6.33797 16.1257 6.35443 16.0664 6.35443 16.0058C6.35443 15.9453 6.33797 15.886 6.3068 15.8341L5.30657 14.1669ZM4.83209 17.3396H3.20881L2.40856 16.0059L3.20884 14.672H4.83209L5.63234 16.0059L4.83209 17.3396Z" fill="white"/>
<path d="M0.0630893 1.83455L-0.809231 2.32355L-0.805139 2.33071L0.0630893 1.83455ZM1.39695 4.16864L2.26545 3.67294L2.26518 3.67247L1.39695 4.16864ZM1.60529 4.32666L1.36211 5.29664L1.36274 5.2968L1.60529 4.32666ZM2.84971 4.63778L3.55682 3.93067L3.36097 3.73482L3.09226 3.66764L2.84971 4.63778ZM7.11776 8.90579L6.41065 9.6129L7.11766 10.3199L7.82476 9.613L7.11776 8.90579ZM7.58936 8.43433L8.29636 9.14154L9.00369 8.43442L8.29645 7.72721L7.58936 8.43433ZM3.25449 4.09964L2.54634 4.8057L2.5474 4.80676L3.25449 4.09964ZM3.09977 4.01185L2.85642 4.98179L2.85688 4.9819L3.09977 4.01185ZM1.90409 3.71186L1.03573 4.2078L1.24719 4.57804L1.66074 4.68179L1.90409 3.71186ZM0.768454 1.72344L0.0613348 1.01635L-0.478603 1.5563L-0.099902 2.21938L0.768454 1.72344ZM1.74207 0.749793L2.23823 -0.118439L1.57505 -0.497419L1.03495 0.0426987L1.74207 0.749793ZM3.73129 1.88655L4.7012 1.64309L4.59745 1.22976L4.22745 1.01832L3.73129 1.88655ZM4.03142 3.08224L5.0019 2.84103L5.00133 2.83877L4.03142 3.08224ZM4.11907 3.23723L4.82618 2.53013L4.82598 2.52993L4.11907 3.23723ZM8.45394 7.5721L7.74683 8.27921L8.45407 8.98645L9.16118 8.27908L8.45394 7.5721ZM8.92536 7.1005L9.6326 7.80748L10.3394 7.10037L9.63247 6.3934L8.92536 7.1005ZM4.65736 2.83246L3.68725 3.07514L3.75445 3.34376L3.95025 3.53956L4.65736 2.83246ZM4.34623 1.58874L5.31634 1.34606L5.31633 1.34603L4.34623 1.58874ZM4.18821 1.37998L4.68518 0.512204L4.68432 0.511712L4.18821 1.37998ZM1.85398 0.0462535L2.35009 -0.822012L2.34818 -0.823092L1.85398 0.0462535ZM1.45387 0.0998749L0.748203 -0.608668L0.74672 -0.607185L1.45387 0.0998749ZM0.120187 1.43374L0.821256 2.14688L0.82734 2.1408L0.120187 1.43374ZM13.9262 6.57159L14.6333 7.2787L15.3404 6.57156L14.6333 5.86446L13.9262 6.57159ZM6.59046 13.9074L5.88336 14.6145L6.59047 15.3216L7.29757 14.6145L6.59046 13.9074ZM6.11886 13.4358L5.41177 12.7287L4.70464 13.4358L5.41176 14.1429L6.11886 13.4358ZM13.4547 6.10017L14.1618 5.39303L13.4547 4.68599L12.7476 5.39305L13.4547 6.10017ZM5.30657 14.1669L6.16408 13.6525L6.16382 13.652L5.30657 14.1669ZM5.0207 14.0052V15.0052L5.02103 15.0052L5.0207 14.0052ZM3.02006 14.0052L3.01984 15.0052H3.02006V14.0052ZM2.73436 14.1669L1.8769 13.6524L1.87689 13.6524L2.73436 14.1669ZM1.73396 15.8341L2.59111 16.3492L2.59143 16.3486L1.73396 15.8341ZM1.73396 16.1776L2.59143 15.663L2.59111 15.6625L1.73396 16.1776ZM2.73436 17.8448L1.87689 18.3593L1.87718 18.3598L2.73436 17.8448ZM3.02006 18.0065L3.01975 19.0065H3.02006V18.0065ZM5.0207 18.0065V19.0065H5.02095L5.0207 18.0065ZM5.30654 17.8448L6.16354 18.3601L6.16404 18.3592L5.30654 17.8448ZM6.3068 16.1776L5.44965 15.6625L5.4493 15.6631L6.3068 16.1776ZM6.3068 15.8341L5.44929 16.3486L5.44965 16.3492L6.3068 15.8341ZM4.83209 17.3396V18.3396H5.39826L5.68957 17.8541L4.83209 17.3396ZM3.20881 17.3396L2.35133 17.8541L2.64264 18.3396H3.20881V17.3396ZM2.40856 16.0059L1.55106 15.4914L1.24236 16.0059L1.55108 16.5204L2.40856 16.0059ZM3.20884 14.672V13.672H2.64264L2.35134 14.1576L3.20884 14.672ZM4.83209 14.672L5.6896 14.1576L5.39831 13.672H4.83209V14.672ZM5.63234 16.0059L6.48981 16.5204L6.79853 16.0059L6.48985 15.4914L5.63234 16.0059ZM-0.805139 2.33071L0.528724 4.6648L2.26518 3.67247L0.931317 1.33838L-0.805139 2.33071ZM0.528457 4.66434C0.617589 4.8205 0.737393 4.95703 0.880662 5.06569L2.08928 3.47219C2.16094 3.52654 2.22087 3.59483 2.26545 3.67294L0.528457 4.66434ZM0.880662 5.06569C1.02393 5.17436 1.1877 5.25291 1.36211 5.29664L1.84847 3.35668C1.93571 3.37855 2.01762 3.41784 2.08928 3.47219L0.880662 5.06569ZM1.36274 5.2968L2.60717 5.60792L3.09226 3.66764L1.84784 3.35652L1.36274 5.2968ZM2.14261 5.34489L6.41065 9.6129L7.82486 8.19868L3.55682 3.93067L2.14261 5.34489ZM7.82476 9.613L8.29636 9.14154L6.88236 7.72712L6.41076 8.19858L7.82476 9.613ZM8.29645 7.72721L3.96158 3.39252L2.5474 4.80676L6.88227 9.14145L8.29645 7.72721ZM3.96264 3.39357C3.79176 3.22219 3.57743 3.10058 3.34266 3.04179L2.85688 4.9819C2.73929 4.95246 2.63193 4.89154 2.54634 4.8057L3.96264 3.39357ZM3.34313 3.04191L2.14744 2.74192L1.66074 4.68179L2.85642 4.98179L3.34313 3.04191ZM2.77245 3.21592L1.63681 1.2275L-0.099902 2.21938L1.03573 4.2078L2.77245 3.21592ZM1.47557 2.43053L2.44919 1.45689L1.03495 0.0426987L0.0613348 1.01635L1.47557 2.43053ZM1.24591 1.61802L3.23513 2.75478L4.22745 1.01832L2.23823 -0.118439L1.24591 1.61802ZM2.76138 2.13001L3.06151 3.3257L5.00133 2.83877L4.7012 1.64309L2.76138 2.13001ZM3.06095 3.32344C3.11938 3.55855 3.24081 3.77328 3.41217 3.94454L4.82598 2.52993C4.91181 2.61571 4.97263 2.72327 5.0019 2.84103L3.06095 3.32344ZM3.41196 3.94434L7.74683 8.27921L9.16105 6.865L4.82618 2.53013L3.41196 3.94434ZM9.16118 8.27908L9.6326 7.80748L8.21813 6.39353L7.7467 6.86513L9.16118 8.27908ZM9.63247 6.3934L5.36447 2.12535L3.95025 3.53956L8.21825 7.80761L9.63247 6.3934ZM5.62746 2.58978L5.31634 1.34606L3.37613 1.83141L3.68725 3.07514L5.62746 2.58978ZM5.31633 1.34603C5.27272 1.1717 5.19433 1.00798 5.08587 0.864691L3.4912 2.07176C3.43705 2.00022 3.39791 1.91848 3.37613 1.83144L5.31633 1.34603ZM5.08587 0.864691C4.97741 0.721405 4.84112 0.601511 4.68518 0.512204L3.69125 2.24775C3.61339 2.20316 3.54535 2.1433 3.4912 2.07176L5.08587 0.864691ZM4.68432 0.511712L2.35008 -0.82201L1.35788 0.914517L3.69211 2.24824L4.68432 0.511712ZM2.34818 -0.823092C2.09473 -0.967178 1.80103 -1.02422 1.51206 -0.985498L1.77772 0.99678C1.63328 1.01614 1.48647 0.987622 1.35978 0.915599L2.34818 -0.823092ZM1.51206 -0.985498C1.22309 -0.946771 0.95478 -0.814405 0.748204 -0.608666L2.15954 0.808416C2.05628 0.911257 1.92217 0.977422 1.77772 0.99678L1.51206 -0.985498ZM0.74672 -0.607185L-0.586966 0.726677L0.82734 2.1408L2.16103 0.806935L0.74672 -0.607185ZM-0.580856 0.720618C-0.789506 0.925735 -0.924899 1.19379 -0.966164 1.48345L1.01385 1.76552C0.993218 1.91032 0.925534 2.04432 0.82123 2.14686L-0.580856 0.720618ZM-0.966164 1.48345C-1.00743 1.77311 -0.952274 2.06831 -0.809202 2.32353L0.93538 1.34556C1.0069 1.47314 1.03447 1.62071 1.01385 1.76552L-0.966164 1.48345ZM13.2191 5.86449L5.88335 13.2003L7.29757 14.6145L14.6333 7.2787L13.2191 5.86449ZM7.29757 13.2003L6.82597 12.7287L5.41176 14.1429L5.88336 14.6145L7.29757 13.2003ZM6.82596 14.1429L14.1618 6.80729L12.7476 5.39305L5.41177 12.7287L6.82596 14.1429ZM12.7477 6.8073L13.2191 7.27873L14.6333 5.86446L14.1618 5.39303L12.7477 6.8073ZM6.16382 13.652C6.04528 13.4547 5.87766 13.2914 5.67728 13.178L4.69258 14.9188C4.59239 14.8622 4.50859 14.7805 4.44932 14.6818L6.16382 13.652ZM5.67728 13.178C5.47689 13.0647 5.25058 13.0052 5.02036 13.0052L5.02103 15.0052C4.90593 15.0053 4.79278 14.9755 4.69258 14.9188L5.67728 13.178ZM5.0207 13.0052H3.02006V15.0052H5.0207V13.0052ZM3.02028 13.0052C2.79004 13.0052 2.56371 13.0648 2.36333 13.1782L3.34848 14.9187C3.24824 14.9754 3.13502 15.0053 3.01984 15.0052L3.02028 13.0052ZM2.36333 13.1782C2.16295 13.2916 1.99537 13.455 1.8769 13.6524L3.59182 14.6815C3.53256 14.7802 3.44872 14.862 3.34848 14.9187L2.36333 13.1782ZM1.87689 13.6524L0.876485 15.3196L2.59143 16.3486L3.59183 14.6815L1.87689 13.6524ZM0.876801 15.3191C0.752171 15.5265 0.686327 15.7639 0.686327 16.0058H2.68633C2.68633 16.1268 2.65341 16.2455 2.59111 16.3492L0.876801 15.3191ZM0.686327 16.0058C0.686327 16.2478 0.752171 16.4852 0.876801 16.6926L2.59111 15.6625C2.65341 15.7662 2.68633 15.8849 2.68633 16.0058H0.686327ZM0.876485 16.6921L1.87689 18.3593L3.59183 17.3302L2.59143 15.663L0.876485 16.6921ZM1.87718 18.3598C1.99565 18.557 2.16314 18.7202 2.36335 18.8335L3.3485 17.0929C3.44859 17.1496 3.53232 17.2312 3.59155 17.3298L1.87718 18.3598ZM2.36335 18.8335C2.56357 18.9468 2.78969 19.0064 3.01975 19.0065L3.02037 17.0065C3.13538 17.0065 3.24842 17.0363 3.3485 17.0929L2.36335 18.8335ZM3.02006 19.0065H5.0207V17.0065H3.02006V19.0065ZM5.02095 19.0065C5.25098 19.0064 5.47708 18.9469 5.67728 18.8336L4.6925 17.0928C4.79253 17.0363 4.9055 17.0065 5.02045 17.0065L5.02095 19.0065ZM5.67728 18.8336C5.87749 18.7203 6.045 18.5572 6.16354 18.3601L4.44953 17.3294C4.50876 17.2309 4.59246 17.1494 4.6925 17.0928L5.67728 18.8336ZM6.16404 18.3592L7.1643 16.6921L5.4493 15.6631L4.44903 17.3303L6.16404 18.3592ZM7.16395 16.6926C7.28859 16.4852 7.35443 16.2478 7.35443 16.0058H5.35443C5.35443 15.8849 5.38734 15.7662 5.44965 15.6625L7.16395 16.6926ZM7.35443 16.0058C7.35443 15.7639 7.28859 15.5265 7.16395 15.3191L5.44965 16.3492C5.38734 16.2455 5.35443 16.1268 5.35443 16.0058H7.35443ZM7.16431 15.3196L6.16408 13.6525L4.44906 14.6814L5.44929 16.3486L7.16431 15.3196ZM4.83209 16.3396H3.20881V18.3396H4.83209V16.3396ZM4.06628 16.825L3.26604 15.4914L1.55108 16.5204L2.35133 17.8541L4.06628 16.825ZM3.26606 16.5204L4.06634 15.1865L2.35134 14.1576L1.55106 15.4914L3.26606 16.5204ZM3.20884 15.672H4.83209V13.672H3.20884V15.672ZM3.97458 15.1865L4.77483 16.5204L6.48985 15.4914L5.6896 14.1576L3.97458 15.1865ZM4.77486 15.4914L3.97461 16.825L5.68957 17.8541L6.48981 16.5204L4.77486 15.4914Z" fill="white" mask="url(#path-1-inside-1_983_21118)"/>
<mask id="path-3-inside-2_983_21118" fill="white">
<path d="M16.0243 8.0033C18.2266 8.01071 20.018 6.23137 20.0254 4.02907C20.0265 3.69389 19.9854 3.35991 19.903 3.03502C19.8585 2.85628 19.6776 2.74749 19.4988 2.79195C19.4402 2.80662 19.3866 2.83691 19.3438 2.8796L17.2682 4.95387L15.6213 4.40505L15.0721 2.75862L17.1478 0.68256C17.1895 0.640746 17.2195 0.588571 17.2345 0.531382C17.2495 0.474192 17.249 0.414046 17.2331 0.357107C17.2171 0.300167 17.1864 0.248483 17.1439 0.207351C17.1014 0.166218 17.0488 0.137117 16.9914 0.12303C14.8557 -0.417819 12.686 0.874993 12.1452 3.01058C12.063 3.33458 12.022 3.66763 12.0231 4.00189C12.0239 4.26445 12.0509 4.52616 12.1041 4.78321L4.80163 12.0857C4.5446 12.0326 4.2829 12.0055 4.02045 12.0046C1.8105 12.0046 0.019043 13.796 0.019043 16.006C0.019043 18.2158 1.8105 20.0072 4.02045 20.0072C6.23027 20.0072 8.02169 18.2158 8.02169 16.006C8.02087 15.7435 7.9937 15.4817 7.94061 15.2247L9.68887 13.4764L10.4534 14.241C10.516 14.3035 10.6008 14.3386 10.6892 14.3386C10.7777 14.3386 10.8625 14.3035 10.925 14.241L11.0917 14.0742C11.2379 13.9289 11.4742 13.9289 11.6205 14.0742C11.7665 14.2199 11.7668 14.4564 11.6212 14.6025L11.6205 14.6032L11.4538 14.7698C11.3236 14.8999 11.3236 15.1111 11.4538 15.2412L15.4315 19.2189C16.4777 20.2747 18.1816 20.2823 19.2374 19.2362C20.293 18.19 20.3007 16.4859 19.2545 15.4302C19.2489 15.4245 19.2432 15.4187 19.2374 15.413L15.2598 11.4354C15.1296 11.3052 14.9185 11.3052 14.7883 11.4354L14.6216 11.6021C14.4753 11.7475 14.2391 11.7475 14.0927 11.6021C13.9468 11.4564 13.9464 11.22 14.092 11.074C14.0923 11.0737 14.0926 11.0736 14.0927 11.0733L14.2595 10.9065C14.3897 10.7763 14.3897 10.5652 14.2595 10.435L13.4949 9.67048L15.2432 7.92222C15.5002 7.97532 15.7619 8.00249 16.0244 8.00333L16.0243 8.0033ZM17.3344 19.3404C17.0922 19.34 16.852 19.2962 16.6253 19.211L19.2294 16.6067C19.6224 17.6521 19.0936 18.8181 18.0483 19.211C17.8201 19.2968 17.5782 19.3407 17.3344 19.3404ZM13.5569 10.6741C13.1876 11.1146 13.2455 11.7711 13.686 12.1402C14.0731 12.4646 14.6373 12.4643 15.0239 12.1392L18.7659 15.8846C18.8065 15.9253 18.8445 15.9682 18.8813 16.0118L16.0303 18.8628C15.9862 18.8262 15.9437 18.7877 15.9029 18.7474L12.1581 15.0023C12.5273 14.5618 12.4694 13.9053 12.029 13.5362C11.6419 13.2116 11.0775 13.2121 10.6909 13.537L10.1574 13.0036L13.0233 10.1419L13.5569 10.6741ZM14.9034 7.32048L7.33912 14.8832C7.29835 14.9239 7.26881 14.9745 7.25338 15.03C7.23794 15.0856 7.23714 15.1441 7.25105 15.2C7.7085 16.9966 6.62294 18.8238 4.82629 19.2812C3.02978 19.7386 1.20254 18.653 0.745056 16.8564C0.287747 15.0599 1.37327 13.2326 3.16996 12.7752C3.71341 12.6369 4.28283 12.6369 4.82629 12.7752C4.88221 12.7889 4.94071 12.788 4.99618 12.7726C5.05166 12.7572 5.10226 12.7278 5.14313 12.6873L12.7056 5.12439C12.7463 5.08367 12.7758 5.03309 12.7912 4.97758C12.8066 4.92206 12.8073 4.86352 12.7933 4.80765C12.3389 3.03214 13.41 1.2245 15.1855 0.770068C15.5211 0.684256 15.868 0.651483 16.2137 0.672939L14.4548 2.43258C14.411 2.47631 14.3802 2.53138 14.366 2.5916C14.3518 2.65183 14.3546 2.71483 14.3741 2.77355L15.0409 4.77432C15.0574 4.82341 15.085 4.86799 15.1216 4.90456C15.1583 4.94113 15.2029 4.96867 15.252 4.98502L17.2528 5.65193C17.3115 5.67148 17.3745 5.67432 17.4347 5.66012C17.4949 5.64593 17.55 5.61526 17.5938 5.57155L19.3527 3.81262C19.3567 3.87563 19.3587 3.93875 19.3588 4.00189C19.3681 5.83411 17.8905 7.3269 16.0583 7.33639C15.7751 7.33777 15.4928 7.30292 15.2184 7.23269C15.1625 7.21871 15.104 7.21944 15.0484 7.2348C14.9929 7.25015 14.9423 7.27962 14.9016 7.32034H14.9033L14.9034 7.32048Z"/>
</mask>
<path d="M16.0243 8.0033C18.2266 8.01071 20.018 6.23137 20.0254 4.02907C20.0265 3.69389 19.9854 3.35991 19.903 3.03502C19.8585 2.85628 19.6776 2.74749 19.4988 2.79195C19.4402 2.80662 19.3866 2.83691 19.3438 2.8796L17.2682 4.95387L15.6213 4.40505L15.0721 2.75862L17.1478 0.68256C17.1895 0.640746 17.2195 0.588571 17.2345 0.531382C17.2495 0.474192 17.249 0.414046 17.2331 0.357107C17.2171 0.300167 17.1864 0.248483 17.1439 0.207351C17.1014 0.166218 17.0488 0.137117 16.9914 0.12303C14.8557 -0.417819 12.686 0.874993 12.1452 3.01058C12.063 3.33458 12.022 3.66763 12.0231 4.00189C12.0239 4.26445 12.0509 4.52616 12.1041 4.78321L4.80163 12.0857C4.5446 12.0326 4.2829 12.0055 4.02045 12.0046C1.8105 12.0046 0.019043 13.796 0.019043 16.006C0.019043 18.2158 1.8105 20.0072 4.02045 20.0072C6.23027 20.0072 8.02169 18.2158 8.02169 16.006C8.02087 15.7435 7.9937 15.4817 7.94061 15.2247L9.68887 13.4764L10.4534 14.241C10.516 14.3035 10.6008 14.3386 10.6892 14.3386C10.7777 14.3386 10.8625 14.3035 10.925 14.241L11.0917 14.0742C11.2379 13.9289 11.4742 13.9289 11.6205 14.0742C11.7665 14.2199 11.7668 14.4564 11.6212 14.6025L11.6205 14.6032L11.4538 14.7698C11.3236 14.8999 11.3236 15.1111 11.4538 15.2412L15.4315 19.2189C16.4777 20.2747 18.1816 20.2823 19.2374 19.2362C20.293 18.19 20.3007 16.4859 19.2545 15.4302C19.2489 15.4245 19.2432 15.4187 19.2374 15.413L15.2598 11.4354C15.1296 11.3052 14.9185 11.3052 14.7883 11.4354L14.6216 11.6021C14.4753 11.7475 14.2391 11.7475 14.0927 11.6021C13.9468 11.4564 13.9464 11.22 14.092 11.074C14.0923 11.0737 14.0926 11.0736 14.0927 11.0733L14.2595 10.9065C14.3897 10.7763 14.3897 10.5652 14.2595 10.435L13.4949 9.67048L15.2432 7.92222C15.5002 7.97532 15.7619 8.00249 16.0244 8.00333L16.0243 8.0033ZM17.3344 19.3404C17.0922 19.34 16.852 19.2962 16.6253 19.211L19.2294 16.6067C19.6224 17.6521 19.0936 18.8181 18.0483 19.211C17.8201 19.2968 17.5782 19.3407 17.3344 19.3404ZM13.5569 10.6741C13.1876 11.1146 13.2455 11.7711 13.686 12.1402C14.0731 12.4646 14.6373 12.4643 15.0239 12.1392L18.7659 15.8846C18.8065 15.9253 18.8445 15.9682 18.8813 16.0118L16.0303 18.8628C15.9862 18.8262 15.9437 18.7877 15.9029 18.7474L12.1581 15.0023C12.5273 14.5618 12.4694 13.9053 12.029 13.5362C11.6419 13.2116 11.0775 13.2121 10.6909 13.537L10.1574 13.0036L13.0233 10.1419L13.5569 10.6741ZM14.9034 7.32048L7.33912 14.8832C7.29835 14.9239 7.26881 14.9745 7.25338 15.03C7.23794 15.0856 7.23714 15.1441 7.25105 15.2C7.7085 16.9966 6.62294 18.8238 4.82629 19.2812C3.02978 19.7386 1.20254 18.653 0.745056 16.8564C0.287747 15.0599 1.37327 13.2326 3.16996 12.7752C3.71341 12.6369 4.28283 12.6369 4.82629 12.7752C4.88221 12.7889 4.94071 12.788 4.99618 12.7726C5.05166 12.7572 5.10226 12.7278 5.14313 12.6873L12.7056 5.12439C12.7463 5.08367 12.7758 5.03309 12.7912 4.97758C12.8066 4.92206 12.8073 4.86352 12.7933 4.80765C12.3389 3.03214 13.41 1.2245 15.1855 0.770068C15.5211 0.684256 15.868 0.651483 16.2137 0.672939L14.4548 2.43258C14.411 2.47631 14.3802 2.53138 14.366 2.5916C14.3518 2.65183 14.3546 2.71483 14.3741 2.77355L15.0409 4.77432C15.0574 4.82341 15.085 4.86799 15.1216 4.90456C15.1583 4.94113 15.2029 4.96867 15.252 4.98502L17.2528 5.65193C17.3115 5.67148 17.3745 5.67432 17.4347 5.66012C17.4949 5.64593 17.55 5.61526 17.5938 5.57155L19.3527 3.81262C19.3567 3.87563 19.3587 3.93875 19.3588 4.00189C19.3681 5.83411 17.8905 7.3269 16.0583 7.33639C15.7751 7.33777 15.4928 7.30292 15.2184 7.23269C15.1625 7.21871 15.104 7.21944 15.0484 7.2348C14.9929 7.25015 14.9423 7.27962 14.9016 7.32034H14.9033L14.9034 7.32048Z" fill="white"/>
<path d="M16.0243 8.0033L16.0277 7.00331L13.5754 6.99505L15.3226 8.71578L16.0243 8.0033ZM20.0254 4.02907L21.0254 4.03242V4.03239L20.0254 4.02907ZM19.903 3.03502L18.9325 3.27639L18.9337 3.28091L19.903 3.03502ZM19.4988 2.79195L19.2575 1.82151L19.2562 1.82184L19.4988 2.79195ZM19.3438 2.8796L18.6376 2.17162L18.637 2.17225L19.3438 2.8796ZM17.2682 4.95387L16.952 5.90258L17.5381 6.09788L17.975 5.66122L17.2682 4.95387ZM15.6213 4.40505L14.6727 4.72148L14.8309 5.1957L15.3052 5.35375L15.6213 4.40505ZM15.0721 2.75862L14.3649 2.05159L13.9279 2.48871L14.1235 3.07506L15.0721 2.75862ZM17.1478 0.68256L17.8549 1.3896L17.855 1.38951L17.1478 0.68256ZM16.9914 0.12303L16.7459 1.09246L16.7531 1.09423L16.9914 0.12303ZM12.1452 3.01058L13.1145 3.25641L13.1146 3.25608L12.1452 3.01058ZM12.0231 4.00189L13.0231 3.99868V3.99861L12.0231 4.00189ZM12.1041 4.78321L12.8113 5.49032L13.1928 5.10878L13.0834 4.58041L12.1041 4.78321ZM4.80163 12.0857L4.59962 13.065L5.12756 13.1739L5.50874 12.7928L4.80163 12.0857ZM4.02045 12.0046L4.02389 11.0046H4.02045V12.0046ZM8.02169 16.006H9.0217L9.02169 16.0028L8.02169 16.006ZM7.94061 15.2247L7.2335 14.5176L6.85221 14.8988L6.96128 15.4269L7.94061 15.2247ZM9.68887 13.4764L10.396 12.7693L9.68888 12.0622L8.98176 12.7693L9.68887 13.4764ZM10.4534 14.241L9.74632 14.9481L9.74652 14.9483L10.4534 14.241ZM10.6892 14.3386V15.3386V14.3386ZM10.925 14.241L11.632 14.9483L11.6324 14.9478L10.925 14.241ZM11.0917 14.0742L10.3869 13.3648L10.3843 13.3674L11.0917 14.0742ZM11.6205 14.0742L12.3266 13.3661L12.3253 13.3648L11.6205 14.0742ZM11.6212 14.6025L12.3283 15.3096L12.3293 15.3085L11.6212 14.6025ZM11.6205 14.6032L12.3275 15.3103L12.3276 15.3103L11.6205 14.6032ZM11.4538 14.7698L10.7468 14.0626L10.7467 14.0627L11.4538 14.7698ZM11.4538 15.2412L12.1609 14.5341L12.1608 14.534L11.4538 15.2412ZM15.4315 19.2189L16.1418 18.515L16.1386 18.5118L15.4315 19.2189ZM19.2374 19.2362L19.9412 19.9465L19.9413 19.9464L19.2374 19.2362ZM19.2545 15.4302L18.5387 16.1286L18.5443 16.1341L19.2545 15.4302ZM19.2374 15.413L18.5303 16.1201L18.5324 16.1222L19.2374 15.413ZM15.2598 11.4354L14.5527 12.1425L14.5527 12.1425L15.2598 11.4354ZM14.6216 11.6021L15.3265 12.3115L15.3288 12.3092L14.6216 11.6021ZM14.0927 11.6021L13.3864 12.31L13.3879 12.3115L14.0927 11.6021ZM14.092 11.074L13.4335 10.3214L13.4081 10.3437L13.3842 10.3676L14.092 11.074ZM14.0927 11.0733L13.3856 10.3662L13.2543 10.4975L13.1789 10.6671L14.0927 11.0733ZM14.2595 10.9065L13.5525 10.1993L13.5524 10.1994L14.2595 10.9065ZM14.2595 10.435L14.9666 9.72794L14.9666 9.72793L14.2595 10.435ZM13.4949 9.67048L12.7878 8.96338L12.0807 9.6705L12.7878 10.3776L13.4949 9.67048ZM15.2432 7.92222L15.4455 6.9429L14.9174 6.8338L14.536 7.21512L15.2432 7.92222ZM16.0244 8.00333L16.0212 9.00333L18.4729 9.01119L16.7261 7.29085L16.0244 8.00333ZM17.3344 19.3404L17.3328 20.3404H17.3334L17.3344 19.3404ZM16.6253 19.211L15.9181 18.504L14.8207 19.6015L16.2737 20.1472L16.6253 19.211ZM19.2294 16.6067L20.1655 16.2549L19.6195 14.8024L18.5223 15.8997L19.2294 16.6067ZM18.0483 19.211L17.6964 18.275L17.6964 18.275L18.0483 19.211ZM13.5569 10.6741L14.3232 11.3166L14.9124 10.6138L14.2631 9.96616L13.5569 10.6741ZM13.686 12.1402L13.0437 12.9067L13.0437 12.9067L13.686 12.1402ZM15.0239 12.1392L15.7314 11.4324L15.0828 10.7833L14.3804 11.3738L15.0239 12.1392ZM18.7659 15.8846L19.4743 15.1787L19.4734 15.1778L18.7659 15.8846ZM18.8813 16.0118L19.5884 16.719L20.2376 16.0698L19.6461 15.3676L18.8813 16.0118ZM16.0303 18.8628L15.3927 19.6331L16.0939 20.2134L16.7374 19.5699L16.0303 18.8628ZM15.9029 18.7474L15.1958 19.4545L15.1996 19.4583L15.9029 18.7474ZM12.1581 15.0023L11.3917 14.3598L10.8033 15.0617L11.4509 15.7094L12.1581 15.0023ZM12.029 13.5362L11.3864 14.3025L11.3867 14.3027L12.029 13.5362ZM10.6909 13.537L9.98381 14.2441L10.6322 14.8925L11.3342 14.3026L10.6909 13.537ZM10.1574 13.0036L9.45083 12.2959L8.74265 13.0031L9.45033 13.7107L10.1574 13.0036ZM13.0233 10.1419L13.7296 9.43391L13.023 8.7291L12.3167 9.43427L13.0233 10.1419ZM14.9034 7.32048L15.6104 8.02766L16.1185 7.51964L15.7992 6.876L14.9034 7.32048ZM7.33912 14.8832L8.04584 15.5907L8.04615 15.5904L7.33912 14.8832ZM7.25105 15.2L6.28058 15.4414L6.28197 15.4468L7.25105 15.2ZM4.82629 19.2812L4.5796 18.3121L4.57954 18.3121L4.82629 19.2812ZM0.745056 16.8564L-0.224039 17.1031L-0.224021 17.1031L0.745056 16.8564ZM3.16996 12.7752L2.92339 11.8061L2.92322 11.8061L3.16996 12.7752ZM4.82629 12.7752L4.57971 13.7443L4.58865 13.7465L4.82629 12.7752ZM5.14313 12.6873L5.84736 13.3972L5.85026 13.3943L5.14313 12.6873ZM12.7056 5.12439L11.9986 4.41713L11.9985 4.4173L12.7056 5.12439ZM12.7933 4.80765L13.7632 4.56443L13.762 4.55975L12.7933 4.80765ZM15.1855 0.770068L14.9378 -0.198757L14.9376 -0.198706L15.1855 0.770068ZM16.2137 0.672939L16.921 1.3799L18.4881 -0.187833L16.2757 -0.325141L16.2137 0.672939ZM14.4548 2.43258L15.1614 3.14013L15.162 3.13954L14.4548 2.43258ZM14.3741 2.77355L13.4253 3.0895L13.4254 3.08973L14.3741 2.77355ZM15.0409 4.77432L14.0922 5.0905L14.0927 5.09184L15.0409 4.77432ZM15.252 4.98502L15.5682 4.03633L15.5678 4.03618L15.252 4.98502ZM17.2528 5.65193L16.9366 6.60062L16.9368 6.60068L17.2528 5.65193ZM17.5938 5.57155L18.3003 6.27925L18.3009 6.27866L17.5938 5.57155ZM19.3527 3.81262L20.3507 3.74933L20.2106 1.54048L18.6456 3.10551L19.3527 3.81262ZM19.3588 4.00189L18.3588 4.00273L18.3588 4.00697L19.3588 4.00189ZM16.0583 7.33639L16.0632 8.33637L16.0635 8.33637L16.0583 7.33639ZM15.2184 7.23269L15.4664 6.2639L15.4611 6.26258L15.2184 7.23269ZM14.9016 7.32034L14.1948 6.61285L12.4855 8.32034H14.9016V7.32034ZM14.9033 7.32034L15.7991 6.87586L15.5235 6.32034H14.9033V7.32034ZM16.021 9.00329C18.7755 9.01256 21.0162 6.78704 21.0254 4.03242L19.0254 4.02572C19.0199 5.6757 17.6777 7.00886 16.0277 7.00331L16.021 9.00329ZM21.0254 4.03239C21.0268 3.61318 20.9753 3.19546 20.8722 2.78912L18.9337 3.28091C18.9954 3.52435 19.0262 3.7746 19.0254 4.02575L21.0254 4.03239ZM20.8734 2.79365C20.6956 2.07869 19.9719 1.64382 19.2575 1.82152L19.7402 3.76238C19.3833 3.85117 19.0214 3.63387 18.9325 3.27639L20.8734 2.79365ZM19.2562 1.82184C19.0222 1.88038 18.8084 2.00126 18.6376 2.17162L20.0501 3.58757C19.9649 3.67256 19.8582 3.73286 19.7415 3.76206L19.2562 1.82184ZM18.637 2.17225L16.5613 4.24652L17.975 5.66122L20.0507 3.58694L18.637 2.17225ZM17.5843 4.00516L15.9375 3.45634L15.3052 5.35375L16.952 5.90258L17.5843 4.00516ZM16.5699 4.08862L16.0207 2.44219L14.1235 3.07506L14.6727 4.72148L16.5699 4.08862ZM15.7793 3.46566L17.8549 1.3896L16.4406 -0.0244745L14.3649 2.05159L15.7793 3.46566ZM17.855 1.38951C18.0222 1.22229 18.1418 1.01363 18.2018 0.784916L16.2671 0.277848C16.2971 0.163514 16.3569 0.0592049 16.4405 -0.0243895L17.855 1.38951ZM18.2018 0.784916C18.2617 0.556201 18.2598 0.315663 18.1961 0.0879544L16.27 0.626259C16.2381 0.512429 16.2372 0.392184 16.2671 0.277848L18.2018 0.784916ZM18.1961 0.0879544C18.1325 -0.139758 18.0095 -0.346454 17.8396 -0.51095L16.4482 0.925652C16.3633 0.84342 16.3018 0.740093 16.27 0.626259L18.1961 0.0879544ZM17.8396 -0.51095C17.6698 -0.675446 17.4593 -0.791828 17.2297 -0.848167L16.7531 1.09423C16.6383 1.06606 16.5331 1.00788 16.4482 0.925652L17.8396 -0.51095ZM17.2369 -0.846369C14.5658 -1.52279 11.8522 0.0940981 11.1758 2.76507L13.1146 3.25608C13.5198 1.65589 15.1455 0.687155 16.7459 1.09243L17.2369 -0.846369ZM11.1758 2.76475C11.073 3.17016 11.0217 3.58692 11.0231 4.00516L13.0231 3.99861C13.0222 3.74835 13.053 3.49899 13.1145 3.25641L11.1758 2.76475ZM11.0231 4.0051C11.0241 4.3341 11.058 4.6627 11.1249 4.98601L13.0834 4.58041C13.0439 4.38963 13.0237 4.19479 13.0231 3.99868L11.0231 4.0051ZM11.397 4.0761L4.09453 11.3785L5.50874 12.7928L12.8113 5.49032L11.397 4.0761ZM5.00365 11.1063C4.68127 11.0398 4.35305 11.0057 4.02389 11.0046L4.01702 13.0046C4.21275 13.0052 4.40792 13.0255 4.59962 13.065L5.00365 11.1063ZM4.02045 11.0046C1.25822 11.0046 -0.980957 13.2437 -0.980957 16.006H1.01904C1.01904 14.3483 2.36277 13.0046 4.02045 13.0046V11.0046ZM-0.980957 16.006C-0.980957 18.7681 1.25824 21.0072 4.02045 21.0072V19.0072C2.36275 19.0072 1.01904 17.6635 1.01904 16.006H-0.980957ZM4.02045 21.0072C6.78256 21.0072 9.02169 18.768 9.02169 16.006H7.02169C7.02169 17.6635 5.67798 19.0072 4.02045 19.0072V21.0072ZM9.02169 16.0028C9.02065 15.6734 8.98656 15.345 8.91994 15.0224L6.96128 15.4269C7.00084 15.6185 7.02108 15.8135 7.0217 16.0091L9.02169 16.0028ZM8.64772 15.9318L10.396 14.1835L8.98176 12.7693L7.2335 14.5176L8.64772 15.9318ZM8.98175 14.1835L9.74632 14.9481L11.1606 13.5339L10.396 12.7693L8.98175 14.1835ZM9.74652 14.9483C9.99659 15.1982 10.3357 15.3386 10.6892 15.3386V13.3386C10.8659 13.3386 11.0354 13.4088 11.1604 13.5337L9.74652 14.9483ZM10.6892 15.3386C11.0428 15.3386 11.3819 15.1982 11.632 14.9483L10.2181 13.5337C10.3431 13.4088 10.5125 13.3386 10.6892 13.3386V15.3386ZM11.6324 14.9478L11.7991 14.781L10.3843 13.3674L10.2176 13.5342L11.6324 14.9478ZM11.7965 14.7836C11.5527 15.0258 11.1594 15.0258 10.9157 14.7836L12.3253 13.3648C11.7891 12.8321 10.9231 12.8321 10.3869 13.3648L11.7965 14.7836ZM10.9144 14.7823C10.6692 14.5378 10.669 14.1412 10.913 13.8964L12.3293 15.3085C12.8647 14.7716 12.8639 13.9019 12.3266 13.3661L10.9144 14.7823ZM10.9141 13.8953L10.9134 13.896L12.3276 15.3103L12.3283 15.3096L10.9141 13.8953ZM10.9134 13.896L10.7468 14.0626L12.1608 15.477L12.3275 15.3103L10.9134 13.896ZM10.7467 14.0627C10.2261 14.5833 10.2259 15.4277 10.7468 15.9484L12.1608 14.534C12.4214 14.7945 12.4212 15.2166 12.1609 15.4769L10.7467 14.0627ZM10.7467 15.9483L14.7244 19.926L16.1386 18.5118L12.1609 14.5341L10.7467 15.9483ZM14.7212 19.9228C16.1561 21.3709 18.4932 21.3814 19.9412 19.9465L18.5335 18.5258C17.87 19.1833 16.7992 19.1784 16.1418 18.515L14.7212 19.9228ZM19.9413 19.9464C21.3892 18.5115 21.3998 16.1743 19.9648 14.7263L18.5443 16.1341C19.2017 16.7975 19.1969 17.8684 18.5335 18.5259L19.9413 19.9464ZM19.9703 14.7319C19.9593 14.7206 19.9492 14.7105 19.9423 14.7037L18.5324 16.1222C18.5347 16.1244 18.5362 16.1259 18.5373 16.1271C18.5384 16.1282 18.5388 16.1286 18.5388 16.1286L19.9703 14.7319ZM19.9445 14.7058L15.9669 10.7283L14.5527 12.1425L18.5303 16.1201L19.9445 14.7058ZM15.9669 10.7283C15.4462 10.2076 14.6019 10.2076 14.0812 10.7283L15.4954 12.1425C15.2351 12.4029 14.813 12.4029 14.5527 12.1425L15.9669 10.7283ZM14.0812 10.7283L13.9145 10.895L15.3288 12.3092L15.4954 12.1425L14.0812 10.7283ZM13.9168 10.8927C14.1605 10.6506 14.5539 10.6506 14.7975 10.8927L13.3879 12.3115C13.9243 12.8444 14.7901 12.8444 15.3265 12.3115L13.9168 10.8927ZM14.7991 10.8942C15.0436 11.1382 15.0448 11.5349 14.7999 11.7803L13.3842 10.3676C12.848 10.905 12.8499 11.7746 13.3864 12.3099L14.7991 10.8942ZM14.7505 11.8266C14.7261 11.8479 14.7052 11.8639 14.7051 11.864C14.6977 11.8697 14.7207 11.8522 14.7441 11.8321C14.8026 11.7819 14.9228 11.6677 15.0066 11.4794L13.1789 10.6671C13.2625 10.4791 13.3825 10.3652 13.4407 10.3152C13.464 10.2952 13.4869 10.2778 13.4794 10.2836C13.4791 10.2838 13.4581 10.2999 13.4335 10.3214L14.7505 11.8266ZM14.7998 11.7804L14.9666 11.6136L13.5524 10.1994L13.3856 10.3662L14.7998 11.7804ZM14.9665 11.6137C15.4874 11.0929 15.4873 10.2486 14.9666 9.72794L13.5524 11.1422C13.2921 10.8819 13.292 10.4597 13.5525 10.1993L14.9665 11.6137ZM14.9666 9.72793L14.202 8.96336L12.7878 10.3776L13.5524 11.1422L14.9666 9.72793ZM14.202 10.3776L15.9503 8.62932L14.536 7.21512L12.7878 8.96338L14.202 10.3776ZM15.0408 8.90154C15.3634 8.96817 15.6918 9.00227 16.0212 9.00333L16.0276 7.00334C15.832 7.00271 15.637 6.98246 15.4455 6.9429L15.0408 8.90154ZM16.7261 7.29085L16.726 7.29082L15.3226 8.71578L15.3227 8.71582L16.7261 7.29085ZM17.336 18.3404C17.2134 18.3402 17.0917 18.318 16.9769 18.2749L16.2737 20.1472C16.6123 20.2744 16.9711 20.3398 17.3328 20.3404L17.336 18.3404ZM17.3324 19.9181L19.9366 17.3138L18.5223 15.8997L15.9181 18.504L17.3324 19.9181ZM18.2934 16.9586C18.4921 17.4871 18.2247 18.0764 17.6964 18.275L18.4001 20.1471C19.9625 19.5598 20.7528 17.8172 20.1655 16.2549L18.2934 16.9586ZM17.6964 18.275C17.581 18.3184 17.4587 18.3405 17.3355 18.3404L17.3334 20.3404C17.6977 20.3408 18.0591 20.2753 18.4001 20.1471L17.6964 18.275ZM12.7906 10.0317C12.0663 10.8955 12.18 12.1828 13.0437 12.9067L14.3283 11.3738C14.3111 11.3593 14.3089 11.3337 14.3232 11.3166L12.7906 10.0317ZM13.0437 12.9067C13.8026 13.5427 14.9091 13.5423 15.6675 12.9046L14.3804 11.3738C14.3655 11.3864 14.3435 11.3865 14.3283 11.3738L13.0437 12.9067ZM14.3165 12.846L18.0585 16.5913L19.4734 15.1778L15.7314 11.4324L14.3165 12.846ZM18.0576 16.5904C18.0713 16.6042 18.0896 16.6242 18.1165 16.6561L19.6461 15.3676C19.5994 15.3122 19.5417 15.2464 19.4743 15.1787L18.0576 16.5904ZM18.1742 15.3047L15.3232 18.1557L16.7374 19.5699L19.5884 16.719L18.1742 15.3047ZM16.668 18.0924C16.6465 18.0747 16.6259 18.056 16.6062 18.0365L15.1996 19.4583C15.2614 19.5194 15.3258 19.5777 15.3927 19.6331L16.668 18.0924ZM16.61 18.0403L12.8652 14.2952L11.4509 15.7094L15.1958 19.4545L16.61 18.0403ZM12.9244 15.6447C13.6486 14.7809 13.535 13.4935 12.6713 12.7697L11.3867 14.3027C11.4039 14.3171 11.406 14.3427 11.3917 14.3598L12.9244 15.6447ZM12.6715 12.7699C11.9123 12.1333 10.8057 12.1344 10.0475 12.7714L11.3342 14.3026C11.3494 14.2898 11.3715 14.2899 11.3864 14.3025L12.6715 12.7699ZM11.398 12.8299L10.8645 12.2964L9.45033 13.7107L9.98381 14.2441L11.398 12.8299ZM10.864 13.7112L13.7299 10.8495L12.3167 9.43427L9.45083 12.2959L10.864 13.7112ZM12.3171 10.8499L12.8507 11.3821L14.2631 9.96616L13.7296 9.43391L12.3171 10.8499ZM14.1963 6.6133L6.63208 14.176L8.04615 15.5904L15.6104 8.02766L14.1963 6.6133ZM6.63239 14.1757C6.46953 14.3384 6.35155 14.5405 6.2899 14.7622L8.21685 15.2978C8.18607 15.4086 8.12716 15.5095 8.04584 15.5907L6.63239 14.1757ZM6.2899 14.7622C6.22826 14.984 6.22505 15.218 6.2806 15.4414L8.2215 14.9587C8.24923 15.0703 8.24763 15.1871 8.21685 15.2978L6.2899 14.7622ZM6.28197 15.4468C6.60314 16.7081 5.84098 17.991 4.5796 18.3121L5.07297 20.2503C7.40489 19.6567 8.81385 17.285 8.22012 14.9533L6.28197 15.4468ZM4.57954 18.3121C3.31826 18.6332 2.03534 17.8711 1.71413 16.6096L-0.224021 17.1031C0.369737 19.435 2.74129 20.8439 5.07303 20.2503L4.57954 18.3121ZM1.71415 16.6097C1.39307 15.3483 2.15522 14.0654 3.41669 13.7443L2.92322 11.8061C0.59132 12.3998 -0.817579 14.7714 -0.224039 17.1031L1.71415 16.6097ZM3.41653 13.7443C3.79818 13.6472 4.19807 13.6472 4.57972 13.7443L5.07285 11.8061C4.3676 11.6266 3.62864 11.6266 2.92339 11.8061L3.41653 13.7443ZM4.58865 13.7465C4.81081 13.8009 5.0432 13.7973 5.26359 13.7361L4.72878 11.809C4.83822 11.7786 4.95361 11.7768 5.06392 11.8038L4.58865 13.7465ZM5.26359 13.7361C5.48398 13.675 5.68498 13.5583 5.84736 13.3972L4.43891 11.9773C4.51953 11.8973 4.61934 11.8394 4.72878 11.809L5.26359 13.7361ZM5.85026 13.3943L13.4127 5.83148L11.9985 4.4173L4.43601 11.9802L5.85026 13.3943ZM13.4126 5.83165C13.5755 5.66874 13.6935 5.46637 13.755 5.24427L11.8274 4.71088C11.8581 4.59981 11.9171 4.4986 11.9986 4.41713L13.4126 5.83165ZM13.755 5.24427C13.8164 5.02218 13.8193 4.78795 13.7632 4.56443L11.8233 5.05087C11.7953 4.93909 11.7967 4.82195 11.8274 4.71088L13.755 5.24427ZM13.762 4.55975C13.4446 3.3193 14.1929 2.05635 15.4334 1.73884L14.9376 -0.198706C12.627 0.392647 11.2332 2.74497 11.8245 5.05555L13.762 4.55975ZM15.4332 1.73889C15.6677 1.67893 15.9102 1.65603 16.1518 1.67102L16.2757 -0.325141C15.8258 -0.353058 15.3744 -0.310415 14.9378 -0.198757L15.4332 1.73889ZM15.5065 -0.0340268L13.7475 1.72561L15.162 3.13954L16.921 1.3799L15.5065 -0.0340268ZM13.7481 1.72502C13.5729 1.90003 13.4499 2.12039 13.3929 2.36139L15.3391 2.82181C15.3106 2.94236 15.2491 3.05259 15.1614 3.14013L13.7481 1.72502ZM13.3929 2.36139C13.3358 2.6024 13.3471 2.85452 13.4253 3.0895L15.3229 2.4576C15.362 2.57514 15.3677 2.70126 15.3391 2.82181L13.3929 2.36139ZM13.4254 3.08973L14.0922 5.0905L15.9896 4.45815L15.3228 2.45737L13.4254 3.08973ZM14.0927 5.09184C14.1584 5.28798 14.2688 5.46617 14.4152 5.61231L15.8281 4.19681C15.9012 4.26982 15.9564 4.35883 15.9892 4.4568L14.0927 5.09184ZM14.4152 5.61231C14.5616 5.75845 14.74 5.86853 14.9362 5.93385L15.5678 4.03618C15.6658 4.06881 15.7549 4.1238 15.8281 4.19681L14.4152 5.61231ZM14.9358 5.9337L16.9366 6.60062L17.569 4.70325L15.5682 4.03633L14.9358 5.9337ZM16.9368 6.60068C17.1715 6.67887 17.4233 6.69021 17.6641 6.63344L17.2052 4.6868C17.3256 4.65843 17.4515 4.6641 17.5688 4.70318L16.9368 6.60068ZM17.6641 6.63344C17.9049 6.57668 18.1252 6.45404 18.3003 6.27925L16.8872 4.86385C16.9748 4.77648 17.0849 4.71518 17.2052 4.6868L17.6641 6.63344ZM18.3009 6.27866L20.0598 4.51972L18.6456 3.10551L16.8866 4.86444L18.3009 6.27866ZM18.3547 3.8759C18.3574 3.91812 18.3587 3.96041 18.3588 4.00273L20.3588 4.00105C20.3587 3.91709 20.356 3.83314 20.3507 3.74933L18.3547 3.8759ZM18.3588 4.00697C18.3653 5.28695 17.3331 6.32978 16.0531 6.3364L16.0635 8.33637C18.4479 8.32403 20.3709 6.38127 20.3588 3.99681L18.3588 4.00697ZM16.0534 6.3364C15.8554 6.33736 15.6581 6.31301 15.4664 6.26392L14.9705 8.20146C15.3275 8.29283 15.6947 8.33817 16.0632 8.33637L16.0534 6.3364ZM15.4611 6.26258C15.2377 6.20671 15.0037 6.20961 14.7818 6.27099L15.3151 8.1986C15.2042 8.22926 15.0873 8.23071 14.9757 8.2028L15.4611 6.26258ZM14.7818 6.27099C14.5599 6.33237 14.3577 6.45014 14.1948 6.61285L15.6083 8.02782C15.5269 8.1091 15.4259 8.16794 15.3151 8.1986L14.7818 6.27099ZM14.9016 8.32034H14.9033V6.32034H14.9016V8.32034ZM14.0075 7.76481L14.0076 7.76495L15.7992 6.876L15.7991 6.87586L14.0075 7.76481Z" fill="white" mask="url(#path-3-inside-2_983_21118)"/>
<mask id="path-5-inside-3_983_21118" fill="white">
<path d="M17.261 16.7704L16.7894 17.242L13.4551 13.9076L13.9265 13.436L17.261 16.7704Z"/>
</mask>
<path d="M17.261 16.7704L16.7894 17.242L13.4551 13.9076L13.9265 13.436L17.261 16.7704Z" fill="white"/>
<path d="M17.261 16.7704L17.9681 17.4775L18.6752 16.7703L17.9681 16.0632L17.261 16.7704ZM16.7894 17.242L16.0823 17.9491L16.7894 18.6562L17.4965 17.9491L16.7894 17.242ZM13.4551 13.9076L12.7478 13.2007L12.041 13.9078L12.748 14.6147L13.4551 13.9076ZM13.9265 13.436L14.6336 12.7289L13.9264 12.0217L13.2193 12.7291L13.9265 13.436ZM16.5539 16.0633L16.0823 16.5349L17.4965 17.9491L17.9681 17.4775L16.5539 16.0633ZM17.4965 16.5349L14.1622 13.2005L12.748 14.6147L16.0823 17.9491L17.4965 16.5349ZM14.1623 14.6146L14.6337 14.143L13.2193 12.7291L12.7478 13.2007L14.1623 14.6146ZM13.2194 14.1432L16.5539 17.4775L17.9681 16.0632L14.6336 12.7289L13.2194 14.1432Z" fill="white" mask="url(#path-5-inside-3_983_21118)"/>
</svg>
