<svg width="20" height="20" viewBox="0 0 20 20" fill="none" xmlns="http://www.w3.org/2000/svg">
    <path
        d="M-0.0238987 1.88345L-0.0238957 1.88344C-0.0704006 1.80049 -0.0883283 1.70453 -0.0749155 1.61038C-0.0615243 1.51638 -0.017636 1.42938 0.0499982 1.36275L1.3834 0.0291689L1.38355 0.0290206C1.4507 -0.0378572 1.53792 -0.0808844 1.63185 -0.093473C1.72578 -0.106062 1.82125 -0.087518 1.90364 -0.0406811L1.90383 -0.040573L4.23807 1.29315L4.23815 1.2932C4.28889 1.32225 4.33323 1.36126 4.36851 1.40787C4.4038 1.45449 4.4293 1.50775 4.44349 1.56447L4.34648 1.58874L4.44349 1.56447L4.74789 2.78133L8.99632 7.02979L9.06702 7.10049L8.99633 7.1712L8.52491 7.6428L8.4542 7.71354L8.38347 7.64281L4.04862 3.30797C4.04862 3.30796 4.04861 3.30795 4.0486 3.30795C3.99302 3.25238 3.95362 3.18272 3.93464 3.10645L3.93468 3.10658L4.03167 3.08224L3.93462 3.10636L-0.0238987 1.88345ZM-0.0238987 1.88345L-0.0234894 1.88416M-0.0238987 1.88345L-0.0234894 1.88416M8.45418 7.5721L8.38346 7.50141L8.38347 7.50139L8.45418 7.5721ZM8.45418 7.5721L8.52489 7.50139L8.52488 7.50138L8.45418 7.5721ZM7.5896 8.43433L7.51889 8.36362L7.5189 8.36361L7.5896 8.43433ZM7.5896 8.43433L7.51888 8.50503L7.51889 8.50504L7.5896 8.43433ZM-0.0234894 1.88416L1.31035 4.21821C1.33931 4.26895 1.37823 4.31331 1.42478 4.34862C1.47134 4.38392 1.52455 4.40945 1.58122 4.42366L1.58128 4.42367M-0.0234894 1.88416L1.58128 4.42367M1.58128 4.42367L2.79883 4.72808L7.04729 8.9765L7.11799 9.0472M1.58128 4.42367L7.11799 9.0472M7.11799 9.0472L7.1887 8.97651M7.11799 9.0472L7.1887 8.97651M7.1887 8.97651L7.6603 8.50505L7.73104 8.43434M7.1887 8.97651L7.73104 8.43434M7.73104 8.43434L7.66031 8.36362M7.73104 8.43434L7.66031 8.36362M7.66031 8.36362L3.32555 4.02903L7.66031 8.36362ZM5.39254 14.1154L5.39257 14.1155L6.39276 15.7826L5.39254 14.1154ZM5.39254 14.1154C5.35401 14.0513 5.29954 13.9982 5.23441 13.9614M5.39254 14.1154L5.23441 13.9614M2.64889 17.8963L2.64886 17.8962L1.64848 16.2291C1.60797 16.1617 1.58657 16.0845 1.58657 16.0058C1.58657 15.9272 1.60797 15.85 1.64848 15.7826M2.64889 17.8963L3.0203 13.9052C2.94551 13.9052 2.87198 13.9246 2.80689 13.9614C2.74179 13.9983 2.68735 14.0513 2.64886 14.1155L1.64848 15.7826M2.64889 17.8963C2.6874 17.9604 2.74184 18.0134 2.80692 18.0502C2.87199 18.0871 2.94549 18.1064 3.02027 18.1065H3.0203M2.64889 17.8963L3.0203 18.1065M1.64848 15.7826L1.7342 15.8341L1.64845 15.7827L1.64848 15.7826ZM3.0203 18.1065H5.02094C5.09576 18.1064 5.16928 18.0871 5.23437 18.0503L5.18513 17.9632M3.0203 18.1065L5.18513 17.9632M5.18513 17.9632L5.23437 18.0503C5.29947 18.0134 5.35394 17.9604 5.39248 17.8963L5.39253 17.8962M5.18513 17.9632L5.39253 17.8962M5.39253 17.8962L6.39276 16.2291L5.39253 17.8962ZM1.97002 3.62524L3.12431 3.91484L1.97002 3.62524ZM1.97002 3.62524L0.893404 1.74015L1.75901 0.874514L1.97002 3.62524ZM5.23441 13.9614C5.16929 13.9246 5.09575 13.9052 5.02094 13.9052M5.23441 13.9614L5.02094 13.9052M5.02094 13.9052C5.02093 13.9052 5.02092 13.9052 5.02091 13.9052M5.02094 13.9052H5.02091M5.02091 13.9052H3.02033H5.02091ZM3.64492 1.95223L3.68192 1.97338L3.73153 1.88655L3.63454 1.9109L3.64492 1.95223ZM13.9972 6.6423L14.0679 6.57159L13.9972 6.50088L13.5257 6.02945L13.455 5.95875L13.3843 6.02945L6.0484 13.3651L5.97768 13.4358L6.0484 13.5065L6.52 13.9781L6.59071 14.0488L6.66142 13.9781L13.9972 6.6423ZM5.51596 16.0059L4.77572 17.2396H3.26567L2.52542 16.0059L3.26571 14.772H4.77571L5.51596 16.0059Z"
        fill="#64748B" stroke="#64748B" stroke-width="0.2" />
    <path
        d="M9.68911 13.6178L8.04938 15.2576C8.09685 15.5041 8.12115 15.7545 8.12193 16.0057L8.12193 16.006C8.12193 18.271 6.28575 20.1072 4.0207 20.1072C1.75551 20.1072 -0.0807129 18.271 -0.0807129 16.006C-0.0807129 13.7408 1.75551 11.9046 4.0207 11.9046H4.02104C4.27211 11.9054 4.52251 11.9297 4.76898 11.9771L11.9958 4.75034C11.9483 4.50379 11.9241 4.25335 11.9233 4.00222C11.9222 3.65956 11.9642 3.31813 12.0485 2.986M9.68911 13.6178L14.5512 11.5314C14.4438 11.6378 14.2709 11.6377 14.1636 11.5313C14.0573 11.4252 14.0565 11.2533 14.1613 11.1464C14.1627 11.145 14.1643 11.1435 14.166 11.1417L14.3305 10.9772C14.3305 10.9772 14.3305 10.9772 14.3305 10.9772C14.4997 10.808 14.4997 10.5336 14.3305 10.3643L13.6366 9.67048L15.2763 8.03075C15.5228 8.07822 15.7732 8.10253 16.0243 8.10333L16.2622 8.1041L16.2559 8.09763C18.406 7.98477 20.1183 6.20921 20.1256 4.0294C20.1268 3.6859 20.0846 3.34362 20.0002 3.01065C19.9423 2.77843 19.7072 2.63714 19.4749 2.69491L19.4748 2.69494C19.3986 2.71399 19.3291 2.75334 19.2735 2.8088L19.2734 2.80886L17.2414 4.83947L15.7006 4.32598L15.1868 2.78562L17.2187 0.753264L17.148 0.68256L17.2187 0.753256C17.2731 0.698901 17.312 0.631076 17.3314 0.556733C17.3509 0.482394 17.3503 0.404208 17.3296 0.330191C17.3089 0.256175 17.2689 0.18899 17.2137 0.13552C17.1585 0.0820521 17.0901 0.0442228 17.0155 0.0259102L16.9916 0.12303L17.0162 0.02609C14.8269 -0.528314 12.6029 0.796891 12.0485 2.986M9.68911 13.6178L10.383 14.3117L10.383 14.3117C10.4643 14.393 10.5745 14.4386 10.6895 14.4386C10.8044 14.4386 10.9147 14.393 10.996 14.3117L10.996 14.3117L11.1624 14.1451C11.1625 14.1451 11.1625 14.1451 11.1626 14.145C11.2698 14.0387 11.4429 14.0387 11.5501 14.145C11.657 14.2516 11.6573 14.4247 11.5507 14.5317L9.68911 13.6178ZM12.0485 2.986L12.1454 3.01058M12.0485 2.986C12.0485 2.98601 12.0485 2.98602 12.0485 2.98603L12.1454 3.01058M12.1454 3.01058C12.0632 3.33458 12.0222 3.66763 12.0233 4.00189C12.0242 4.26445 12.0512 4.52616 12.1044 4.78321L12.1454 3.01058ZM14.6623 7.42034H14.6602L14.8311 7.24959C14.8841 7.19668 14.9499 7.15838 15.022 7.13841C15.0942 7.11845 15.1703 7.11751 15.2429 7.13568L15.2434 7.13581C15.5096 7.20393 15.7833 7.23773 16.0581 7.23639C17.8198 7.22725 19.2434 5.80411 19.2589 4.04805L17.6647 5.64226L17.6647 5.64232C17.6077 5.69914 17.5361 5.739 17.4579 5.75746C17.3796 5.77591 17.2977 5.77222 17.2214 5.74681L17.2214 5.7468L15.2207 5.0799L15.2206 5.07989L15.2523 4.98502L14.6623 7.42034ZM14.6623 7.42034L7.26869 14.8125C7.21571 14.8654 7.17733 14.9311 7.15727 15.0033C7.13722 15.0754 7.13618 15.1515 7.15424 15.2242L7.15438 15.2247C7.5982 16.9677 6.54498 18.7405 4.80186 19.1843L4.82653 19.2812L4.80186 19.1843C3.05887 19.628 1.28607 18.5748 0.842208 16.8317C0.398523 15.0887 1.45171 13.3159 3.19487 12.8721C3.72214 12.7379 4.27461 12.7379 4.80187 12.8721L4.80277 12.8723C4.87531 12.8901 4.9512 12.8889 5.02317 12.8689C5.09514 12.849 5.16077 12.8108 5.2138 12.7582L5.21409 12.758L12.7765 5.19512C12.7766 5.19511 12.7766 5.1951 12.7766 5.1951C12.8295 5.14216 12.8678 5.07641 12.8878 5.00424C12.9078 4.93208 12.9087 4.85596 12.8905 4.78333L12.8904 4.78286C12.4497 3.06086 13.4885 1.3077 15.2105 0.866951L14.6623 7.42034ZM13.4242 10.6828C13.083 11.1627 13.163 11.8322 13.622 12.2169C14.0226 12.5525 14.5961 12.5711 15.0157 12.2722L18.6954 15.9551L13.4242 10.6828ZM13.4242 10.6828L13.0236 10.2832L10.2991 13.0036L10.6996 13.4041C11.1191 13.1054 11.6929 13.1237 12.0935 13.4596C12.5525 13.8443 12.6324 14.5138 12.2912 14.9937L15.9735 18.6763C15.9735 18.6764 15.9735 18.6764 15.9736 18.6764C15.9907 18.6933 16.0081 18.7099 16.0258 18.7261L18.7448 16.0072C18.7286 15.9894 18.7122 15.9721 18.6954 15.9552L13.4242 10.6828ZM14.1538 11.1528C14.1533 11.1532 14.1542 11.1525 14.1556 11.1513L14.155 11.1518L14.1538 11.1528ZM14.7178 11.3647L14.5514 11.5311L19.2376 19.2362C20.2933 18.19 20.301 16.4859 19.2548 15.4302L19.3264 15.3604L19.3258 15.3598L19.3083 15.3422L19.3081 15.342L15.3307 11.3647C15.1615 11.1955 14.8871 11.1955 14.7178 11.3647ZM17.3348 19.2404C17.1574 19.2401 16.9812 19.2153 16.811 19.167L19.1857 16.7921C19.458 17.7449 18.9572 18.7626 18.0133 19.1174C17.7964 19.199 17.5666 19.2406 17.3348 19.2404ZM15.2105 0.866946C15.4619 0.802659 15.7199 0.769066 15.9788 0.766698L14.3844 2.36182L15.2105 0.866946Z"
        fill="#64748B" stroke="#64748B" stroke-width="0.2" />
    <path
        d="M17.3317 16.8411L17.4024 16.7704L17.3317 16.6996L13.9972 13.3653L13.9265 13.2946L13.8558 13.3653L13.3844 13.8369L13.3137 13.9076L13.3844 13.9783L16.7187 17.3127L16.7894 17.3834L16.8601 17.3127L17.3317 16.8411Z"
        fill="#64748B" stroke="#64748B" stroke-width="0.2" />
</svg>