<svg width="17" height="16" viewBox="0 0 17 16" fill="none" xmlns="http://www.w3.org/2000/svg">
<path fill-rule="evenodd" clip-rule="evenodd" d="M2.64415 7.99984C3.02925 8.53094 3.8185 9.53168 4.85779 10.403C5.93539 11.3064 7.19721 11.9998 8.5 11.9998C9.80279 11.9998 11.0646 11.3064 12.1422 10.403C13.1815 9.53168 13.9708 8.53094 14.3558 7.99984C13.9708 7.46874 13.1815 6.468 12.1422 5.5967C11.0646 4.69327 9.80279 3.99984 8.5 3.99984C7.19721 3.99984 5.93539 4.69327 4.85779 5.5967C3.8185 6.468 3.02925 7.46874 2.64415 7.99984ZM4.00118 4.57493C5.17566 3.59029 6.73752 2.6665 8.5 2.6665C10.2625 2.6665 11.8243 3.59029 12.9988 4.57493C14.1847 5.56913 15.0621 6.69793 15.4676 7.26184C15.7865 7.70542 15.7865 8.29426 15.4676 8.73784C15.0621 9.30174 14.1847 10.4305 12.9988 11.4247C11.8243 12.4094 10.2625 13.3332 8.5 13.3332C6.73752 13.3332 5.17566 12.4094 4.00118 11.4247C2.81531 10.4305 1.93787 9.30174 1.53245 8.73784C1.21354 8.29426 1.21354 7.70542 1.53245 7.26184C1.93787 6.69793 2.81531 5.56913 4.00118 4.57493Z" fill="#848484"/>
<path fill-rule="evenodd" clip-rule="evenodd" d="M8.5 9.33317C9.23638 9.33317 9.83333 8.73622 9.83333 7.99984C9.83333 7.26346 9.23638 6.6665 8.5 6.6665C7.76362 6.6665 7.16667 7.26346 7.16667 7.99984C7.16667 8.73622 7.76362 9.33317 8.5 9.33317ZM8.5 10.6665C9.97276 10.6665 11.1667 9.4726 11.1667 7.99984C11.1667 6.52708 9.97276 5.33317 8.5 5.33317C7.02724 5.33317 5.83333 6.52708 5.83333 7.99984C5.83333 9.4726 7.02724 10.6665 8.5 10.6665Z" fill="#848484"/>
</svg>
