<svg width="18" height="20" viewBox="0 0 18 20" fill="none" xmlns="http://www.w3.org/2000/svg">
<path d="M1.5 4.95882H3.16667M3.16667 4.95882H16.5M3.16667 4.95882V16.6255C3.16667 17.0675 3.34226 17.4914 3.65482 17.804C3.96738 18.1166 4.39131 18.2922 4.83333 18.2922H13.1667C13.6087 18.2922 14.0326 18.1166 14.3452 17.804C14.6577 17.4914 14.8333 17.0675 14.8333 16.6255V4.95882H3.16667ZM5.66667 4.95882V3.29216C5.66667 2.85013 5.84226 2.4262 6.15482 2.11364C6.46738 1.80108 6.89131 1.62549 7.33333 1.62549H10.6667C11.1087 1.62549 11.5326 1.80108 11.8452 2.11364C12.1577 2.4262 12.3333 2.85013 12.3333 3.29216V4.95882M7.33333 9.12549V14.1255M10.6667 9.12549V14.1255" stroke="#667085" stroke-width="1.66667" stroke-linecap="round" stroke-linejoin="round"/>
</svg>
