<svg width="20" height="20" viewBox="0 0 20 20" fill="none" xmlns="http://www.w3.org/2000/svg">
<path d="M14.1665 2.45891C14.3854 2.24004 14.6452 2.06642 14.9312 1.94797C15.2171 1.82952 15.5236 1.76855 15.8332 1.76855C16.1427 1.76855 16.4492 1.82952 16.7352 1.94797C17.0211 2.06642 17.281 2.24004 17.4998 2.45891C17.7187 2.67778 17.8923 2.93762 18.0108 3.22358C18.1292 3.50955 18.1902 3.81605 18.1902 4.12558C18.1902 4.43511 18.1292 4.7416 18.0108 5.02757C17.8923 5.31354 17.7187 5.57337 17.4998 5.79224L6.24984 17.0422L1.6665 18.2922L2.9165 13.7089L14.1665 2.45891Z" stroke="#667085" stroke-width="1.66667" stroke-linecap="round" stroke-linejoin="round"/>
</svg>
