<svg width="100" height="100" viewBox="0 0 127 128" fill="none" xmlns="http://www.w3.org/2000/svg">
    <rect x="7.73251" y="6.95029" width="110.874" height="111.977" stroke="#D70365" stroke-width="1.28534"
        stroke-dasharray="13.68 13.68" />
    <line x1="63.8849" y1="0.307617" x2="63.8849" y2="15.3848" stroke="#D70365" stroke-width="1.28534"
        stroke-dasharray="14.98 14.98" />
    <line x1="63.8849" y1="112.283" x2="63.8849" y2="127.36" stroke="#D70365" stroke-width="1.28534"
        stroke-dasharray="14.98 14.98" />
    <line x1="15.167" y1="63.8331" x2="0.0898437" y2="63.8331" stroke="#D70365" stroke-width="1.28534"
        stroke-dasharray="14.98 14.98" />
    <line x1="126.86" y1="63.8331" x2="111.783" y2="63.8331" stroke="#D70365" stroke-width="1.28534"
        stroke-dasharray="14.98 14.98" />
    <path
        d="M83.2013 60.5645H78.2607C77.824 60.5645 77.4051 60.738 77.0962 61.0468C76.7874 61.3556 76.6139 61.7745 76.6139 62.2113C76.6139 62.6481 76.7874 63.0669 77.0962 63.3758C77.4051 63.6846 77.824 63.8581 78.2607 63.8581H83.2013V80.3266H43.677V63.8581H48.6175C49.0543 63.8581 49.4732 63.6846 49.782 63.3758C50.0909 63.0669 50.2644 62.6481 50.2644 62.2113C50.2644 61.7745 50.0909 61.3556 49.782 61.0468C49.4732 60.738 49.0543 60.5645 48.6175 60.5645H43.677C42.8037 60.5653 41.9665 60.9126 41.349 61.5301C40.7315 62.1476 40.3842 62.9849 40.3833 63.8581V80.3266C40.3842 81.1999 40.7315 82.0371 41.349 82.6546C41.9665 83.2721 42.8037 83.6194 43.677 83.6203H83.2013C84.0745 83.6194 84.9118 83.2721 85.5293 82.6546C86.1468 82.0371 86.4941 81.1999 86.4949 80.3266V63.8581C86.4941 62.9849 86.1468 62.1476 85.5293 61.5301C84.9118 60.9126 84.0745 60.5653 83.2013 60.5645Z"
        fill="#D70365" />
    <path
        d="M64.521 44.0994C64.2064 43.8254 63.7996 43.6809 63.3826 43.6953C62.9656 43.7097 62.5697 43.8818 62.2747 44.1768L54.4423 52.0092C54.2115 52.2394 54.0542 52.533 53.9904 52.8527C53.9265 53.1723 53.959 53.5038 54.0837 53.805C54.2084 54.1062 54.4197 54.3637 54.6908 54.5447C54.9619 54.7257 55.2806 54.8223 55.6066 54.822H61.7922V74.9843C61.7922 75.4211 61.9657 75.84 62.2745 76.1488C62.5834 76.4577 63.0023 76.6312 63.439 76.6312C63.8758 76.6312 64.2947 76.4577 64.6035 76.1488C64.9124 75.84 65.0859 75.4211 65.0859 74.9843V54.8204H71.2714C71.5971 54.8203 71.9154 54.7237 72.1862 54.5427C72.4569 54.3617 72.668 54.1046 72.7926 53.8037C72.9172 53.5028 72.9498 53.1717 72.8863 52.8523C72.8228 52.5329 72.666 52.2395 72.4357 52.0092C72.3814 51.9548 64.5803 44.1504 64.521 44.0994Z"
        fill="#D70365" />
</svg>