<svg width="20" height="21" viewBox="0 0 20 21" fill="none" xmlns="http://www.w3.org/2000/svg">
<path d="M10.0001 16.7921C10.7884 16.7921 11.5084 16.7063 12.1651 16.558L10.7009 15.0938C10.4734 15.1113 10.2426 15.1255 10.0001 15.1255C5.54094 15.1255 3.81344 11.9205 3.3951 10.9588C3.70923 10.2578 4.13348 9.61158 4.65177 9.04463L3.48677 7.87963C2.2051 9.2688 1.71927 10.668 1.7101 10.6955C1.65262 10.8666 1.65262 11.0518 1.7101 11.223C1.7276 11.278 3.63927 16.7921 10.0001 16.7921ZM10.0001 5.12546C8.46927 5.12546 7.21177 5.45546 6.16344 5.94296L3.08927 2.86963L1.91094 4.04796L16.9109 19.048L18.0893 17.8696L15.3234 15.1038C17.5018 13.478 18.2793 11.258 18.2909 11.223C18.3484 11.0518 18.3484 10.8666 18.2909 10.6955C18.2726 10.6396 16.3609 5.12546 10.0001 5.12546ZM14.1434 13.9238L12.2434 12.0238C12.4018 11.6988 12.5001 11.3413 12.5001 10.9588C12.5001 9.5913 11.3676 8.4588 10.0001 8.4588C9.6176 8.4588 9.2601 8.55713 8.93594 8.7163L7.42927 7.20963C8.25637 6.92581 9.12569 6.78463 10.0001 6.79213C14.4593 6.79213 16.1868 9.99713 16.6051 10.9588C16.3534 11.5355 15.6334 12.9105 14.1434 13.9238Z" fill="#667085"/>
</svg>
