<svg width="29" height="29" viewBox="0 0 29 29" fill="none" xmlns="http://www.w3.org/2000/svg">
<path d="M28.5 14.5239C28.5 11.755 27.6789 9.04823 26.1406 6.74594C24.6022 4.44366 22.4157 2.64924 19.8576 1.58961C17.2994 0.529985 14.4845 0.252739 11.7687 0.792933C9.053 1.33313 6.55844 2.6665 4.60051 4.62443C2.64257 6.58237 1.3092 9.07693 0.769007 11.7927C0.228813 14.5084 0.50606 17.3233 1.56569 19.8815C2.62531 22.4397 4.41973 24.6262 6.72202 26.1645C9.02431 27.7028 11.7311 28.5239 14.5 28.5239C18.213 28.5239 21.774 27.0489 24.3995 24.4234C27.025 21.7979 28.5 18.237 28.5 14.5239ZM22.5 15.5239L10.35 15.5239L15.93 21.1309L14.5 22.5239L6.5 14.5239L14.5 6.52393L15.93 7.95093L10.35 13.5239L22.5 13.5239V15.5239Z" fill="#535353"/>
</svg>
