<svg width="29" height="29" viewBox="0 0 29 29" fill="none" xmlns="http://www.w3.org/2000/svg">
<path d="M0.5 14.5239C0.5 17.2929 1.32109 19.9996 2.85943 22.3019C4.39777 24.6042 6.58427 26.3986 9.14243 27.4582C11.7006 28.5179 14.5155 28.7951 17.2313 28.2549C19.947 27.7147 22.4416 26.3814 24.3995 24.4234C26.3574 22.4655 27.6908 19.9709 28.231 17.2552C28.7712 14.5395 28.4939 11.7245 27.4343 9.16636C26.3747 6.60819 24.5803 4.42169 22.278 2.88335C19.9757 1.34501 17.2689 0.523926 14.5 0.523926C10.787 0.523926 7.22601 1.99892 4.6005 4.62443C1.975 7.24994 0.5 10.8109 0.5 14.5239ZM6.5 13.5239H18.65L13.07 7.91693L14.5 6.52393L22.5 14.5239L14.5 22.5239L13.07 21.0969L18.65 15.5239H6.5V13.5239Z" fill="#535353"/>
</svg>
