<svg width="18" height="24" viewBox="0 0 18 24" fill="none" xmlns="http://www.w3.org/2000/svg">
<path d="M16.1484 4.45334H14.9766V1.64018C14.9766 1.11532 14.7226 0.618351 14.2973 0.310805C13.872 0.00325768 13.3205 -0.0822892 12.822 0.0821483L1.33763 3.86993C1.00955 3.9777 0.723929 4.18641 0.521579 4.46623C0.319229 4.74606 0.210504 5.08268 0.210939 5.42801V22.3594C0.210939 23.264 0.946923 24 1.85156 24H16.1484C17.0531 24 17.7891 23.264 17.7891 22.3594V6.09396C17.7891 5.18937 17.0531 4.45334 16.1484 4.45334ZM16.3828 22.3594C16.3828 22.4886 16.2777 22.5937 16.1484 22.5937H1.85156C1.72233 22.5937 1.61719 22.4886 1.61719 22.3594V6.09396C1.61719 5.96473 1.72233 5.85959 1.85156 5.85959H16.1484C16.2777 5.85959 16.3828 5.96473 16.3828 6.09396V22.3594ZM13.2625 1.41762C13.3615 1.38499 13.437 1.42409 13.4733 1.45029C13.5096 1.47649 13.5704 1.53598 13.5704 1.64018V4.45338H4.05835L13.2625 1.41762Z" fill="#64748B"/>
<path d="M4.3125 13.9909H13.6875C14.0758 13.9909 14.3906 13.6761 14.3906 13.2878C14.3906 12.8995 14.0758 12.5847 13.6875 12.5847H13.4838C13.1807 10.6441 11.6437 9.10707 9.70312 8.80397V8.45166C9.70312 8.06335 9.38831 7.74854 9 7.74854C8.61169 7.74854 8.29688 8.06335 8.29688 8.45166V8.80397C6.35634 9.10707 4.81927 10.6441 4.51617 12.5847H4.3125C3.92419 12.5847 3.60938 12.8995 3.60938 13.2878C3.60938 13.6761 3.92419 13.9909 4.3125 13.9909ZM9 10.1557C10.4854 10.1557 11.7325 11.1951 12.0525 12.5847H5.94745C6.26747 11.1951 7.51467 10.1557 9 10.1557ZM4.58517 15.8905C4.19686 15.8905 3.88205 16.2053 3.88205 16.5936C3.88205 16.9819 4.19686 17.2967 4.58517 17.2967H7.96017C8.34848 17.2967 8.6633 16.9819 8.6633 16.5936C8.6633 16.2053 8.34848 15.8905 7.96017 15.8905H4.58517ZM13.5117 18.703H4.48828C4.09997 18.703 3.78516 19.0178 3.78516 19.4061C3.78516 19.7944 4.09997 20.1092 4.48828 20.1092H13.5117C13.9 20.1092 14.2148 19.7944 14.2148 19.4061C14.2148 19.0178 13.9 18.703 13.5117 18.703Z" fill="#64748B"/>
</svg>
