<svg width="23" height="23" viewBox="0 0 23 23" fill="none" xmlns="http://www.w3.org/2000/svg">
<path d="M5.25 20.25C5.25 21.4905 6.2595 22.5 7.5 22.5C8.7405 22.5 9.75 21.4905 9.75 20.25C9.75 19.0095 8.7405 18 7.5 18C6.2595 18 5.25 19.0095 5.25 20.25ZM8.25 20.25C8.25 20.6632 7.91325 21 7.5 21C7.08675 21 6.75 20.6632 6.75 20.25C6.75 19.8368 7.08675 19.5 7.5 19.5C7.91325 19.5 8.25 19.8368 8.25 20.25ZM18.75 20.25C18.75 19.0095 17.7405 18 16.5 18C15.2595 18 14.25 19.0095 14.25 20.25C14.25 21.4905 15.2595 22.5 16.5 22.5C17.7405 22.5 18.75 21.4905 18.75 20.25ZM15.75 20.25C15.75 19.8368 16.0868 19.5 16.5 19.5C16.9132 19.5 17.25 19.8368 17.25 20.25C17.25 20.6632 16.9132 21 16.5 21C16.0868 21 15.75 20.6632 15.75 20.25ZM3.075 2.25L4.36275 14.4855C4.41998 15.0389 4.68058 15.5513 5.09405 15.9235C5.50753 16.2956 6.04444 16.5011 6.60075 16.5H18.288C18.8024 16.4977 19.3006 16.3203 19.7006 15.9969C20.1006 15.6735 20.3785 15.2235 20.4885 14.721L22.29 6.31425C22.3373 6.09559 22.3349 5.86907 22.2828 5.65149C22.2308 5.4339 22.1304 5.23081 21.9893 5.05725C21.8489 4.88292 21.6711 4.74234 21.4691 4.64589C21.2671 4.54944 21.0461 4.49958 20.8223 4.5H4.82025L4.49625 1.422C4.47696 1.23754 4.39001 1.06677 4.2522 0.942669C4.11438 0.818563 3.93546 0.749922 3.75 0.75H1.5C1.30109 0.75 1.11032 0.829018 0.96967 0.96967C0.829018 1.11032 0.75 1.30109 0.75 1.5C0.75 1.69891 0.829018 1.88968 0.96967 2.03033C1.11032 2.17098 1.30109 2.25 1.5 2.25H3.075ZM20.8223 6L19.0215 14.4067C18.9472 14.7502 18.639 15 18.2872 15H6.60075C6.41531 15.0004 6.23631 14.932 6.09844 14.808C5.96057 14.684 5.87364 14.5132 5.8545 14.3287L4.97775 6H20.8223Z" fill="white"/>
</svg>
