<svg width="24" height="24" viewBox="0 0 24 24" fill="none" xmlns="http://www.w3.org/2000/svg">
<path d="M12.0548 0C12.0483 0.00643032 12.0355 0.00643032 12.0162 0.00643032C5.5087 0.00643032 0.216553 5.29858 0.216553 11.8061C0.216553 14.4618 1.12323 17.0403 2.78225 19.1173L1.06535 23.1041C0.923888 23.4321 1.07822 23.8115 1.39973 23.9465C1.51548 23.9979 1.64408 24.0108 1.76626 23.9915L8.06154 22.8855C9.32188 23.342 10.6465 23.5735 11.984 23.5671C18.4915 23.5671 23.7837 18.275 23.7837 11.7675C23.7965 5.27929 18.543 0.00643032 12.0548 0ZM11.9905 22.2875C10.7494 22.2875 9.52122 22.0624 8.35733 21.6252C8.24802 21.5801 8.13227 21.5737 8.01653 21.593L2.71795 22.519L4.11976 19.2588C4.21621 19.0337 4.17763 18.7701 4.01687 18.5836C3.25809 17.7027 2.65364 16.6995 2.22924 15.6128C1.7534 14.3975 1.50905 13.105 1.50905 11.7996C1.50905 5.99949 6.2289 1.28606 12.0226 1.28606C17.8035 1.2732 22.4976 5.94804 22.504 11.7289V11.7675C22.504 17.5741 17.7842 22.2875 11.9905 22.2875Z" fill="#ffffff"/>
<path d="M11.4889 9.43311H8.01657C7.6629 9.43311 7.37354 9.72247 7.37354 10.0761C7.37354 10.4298 7.6629 10.7192 8.01657 10.7192H11.4889C11.8426 10.7192 12.132 10.4298 12.132 10.0761C12.132 9.72247 11.8426 9.43311 11.4889 9.43311ZM15.9902 12.6483H8.01657C7.6629 12.6483 7.37354 12.9376 7.37354 13.2913C7.37354 13.645 7.6629 13.9343 8.01657 13.9343H15.9902C16.3438 13.9343 16.6332 13.645 16.6332 13.2913C16.6332 12.9376 16.3438 12.6483 15.9902 12.6483Z" fill="#ffffff"/>
</svg>
